<svg xmlns="http://www.w3.org/2000/svg" viewBox="0 0 171.1 35.6"><path d="M171.1 11.4V34h-8.8V11.4c0-.5-.4-.8-.8-.8h-14.3c-.5 0-.8.4-.8.8V34h-8.8V11.4c0-4.9 4-9 9-9h15.6c4.9 0 8.9 4.1 8.9 9zm-36.3 6.5c0 4.2-3.5 7.7-7.7 7.7-1.1 0-2.1-.2-3-.6.4.9.6 1.9.6 2.9 0 4.2-3.4 7.7-7.6 7.7h-.1c-4.2 0-7.7-3.5-7.7-7.7 0-1 .2-2 .5-2.9-.9.4-1.8.6-2.9.6-2.8 0-5.3-1.5-6.6-3.8-.7-1.2-1.1-2.5-1.1-4 0-1.4.4-2.8 1.1-3.9 1.3-2.2 3.8-3.7 6.6-3.7 1 0 2 .2 2.9.6-.4-.9-.6-1.9-.6-3 0-4.2 3.5-7.7 7.7-7.7h.1c4.2 0 7.6 3.5 7.6 7.7 0 1.1-.2 2.1-.6 3 .9-.4 2-.6 3.1-.6 4.3 0 7.7 3.4 7.7 7.7zm-15.4-.1c0-1.1.2-2.1.6-3-.9.4-1.9.6-3 .6h-.1c-1 0-2-.2-2.9-.6.4.9.6 2 .6 3s-.2 2-.6 2.9c.9-.4 1.9-.6 2.9-.6h.1c1 0 2 .2 2.9.6-.3-.8-.5-1.8-.5-2.9zM101 10.5V2.6H68.2v7.9h12.1v23.6h9.1V10.5H101zM0 34.1h9.2V2.5L0 2.6v31.5zM20.5 18L37.2 4.6l2.5-2H26.8L14 13c-.7.6-1.3 1.1-1.9 1.9-.7.9-1.1 1.9-1.2 2.8-.1 1.2.2 2.4.9 3.5.6 1 1.2 1.5 2.1 2.2l12.8 10.7h13.7l-3.2-2.6L20.5 18zm48.3-3.5c.5 1 .7 2.1.7 3.3 0 1.2-.3 2.3-.7 3.3-1.2 2.6-3.9 4.4-7 4.4-1.1 0-2.1-.2-3-.6.4.9.6 1.9.6 2.9 0 4.2-3.4 7.7-7.7 7.7h-.1c-4.2 0-7.7-3.5-7.7-7.7 0-1 .2-2 .6-2.9-.9.4-1.9.6-2.9.6-1.7 0-3.3-.6-4.5-1.5-1.9-1.4-3.2-3.7-3.2-6.2s1.3-4.8 3.2-6.2c1.3-.9 2.9-1.5 4.5-1.5 1 0 2 .2 2.9.6-.4-.9-.6-2-.6-3 0-4.2 3.5-7.7 7.7-7.7h.1c4.2 0 7.7 3.5 7.7 7.7 0 1.1-.2 2.1-.6 3 .9-.4 2-.6 3.1-.6 3 0 5.7 1.8 6.9 4.4zm-14.6 3.3c0-1.1.2-2.1.6-3-.9.4-1.9.6-3 .6h-.1c-1 0-2-.2-2.9-.6.4.9.6 2 .6 3s-.2 2-.6 2.9c.9-.4 1.8-.6 2.9-.6h.1c1 0 2 .2 2.9.6-.3-.9-.5-1.8-.5-2.9z" fill-rule="evenodd" clip-rule="evenodd" fill="#231f20"/></svg>